<?xml version="1.0" standalone="no"?>
<!DOCTYPE svg PUBLIC "-//W3C//DTD SVG 20010904//EN"
 "http://www.w3.org/TR/2001/REC-SVG-20010904/DTD/svg10.dtd">
<svg version="1.0" xmlns="http://www.w3.org/2000/svg"
 width="512.000000pt" height="512.000000pt" viewBox="0 0 512.000000 512.000000"
 preserveAspectRatio="xMidYMid meet">
<metadata>
Created by potrace 1.11, written by Peter Selinger 2001-2013
</metadata>
<g transform="translate(0.000000,512.000000) scale(0.100000,-0.100000)"
fill="#000000" stroke="none">
<path d="M2560 3920 l0 -1200 -80 0 -80 0 0 -80 0 -80 -1200 0 -1200 0 0
-1280 0 -1280 2560 0 2560 0 0 2560 0 2560 -1280 0 -1280 0 0 -1200z"/>
<path d="M480 4880 l0 -80 -80 0 -80 0 0 -80 0 -80 -80 0 -80 0 0 -240 0 -240
80 0 80 0 0 -80 0 -80 80 0 80 0 0 -80 0 -80 160 0 160 0 0 -80 0 -80 -160 0
-160 0 0 -80 0 -80 -80 0 -80 0 0 -240 0 -240 80 0 80 0 0 -80 0 -80 80 0 80
0 0 -80 0 -80 240 0 240 0 0 80 0 80 80 0 80 0 0 80 0 80 80 0 80 0 0 240 0
240 80 0 80 0 0 -80 0 -80 240 0 240 0 0 80 0 80 80 0 80 0 0 80 0 80 80 0 80
0 0 240 0 240 -80 0 -80 0 0 80 0 80 -80 0 -80 0 0 80 0 80 -240 0 -240 0 0
-80 0 -80 -80 0 -80 0 0 -80 0 -80 -80 0 -80 0 0 160 0 160 -80 0 -80 0 0 160
0 160 -80 0 -80 0 0 80 0 80 -240 0 -240 0 0 -80z m160 -160 l0 -80 160 0 160
0 0 -80 0 -80 80 0 80 0 0 -160 0 -160 80 0 80 0 0 -160 0 -160 80 0 80 0 0
160 0 160 80 0 80 0 0 80 0 80 240 0 240 0 0 -80 0 -80 80 0 80 0 0 -240 0
-240 -80 0 -80 0 0 -80 0 -80 -80 0 -80 0 0 80 0 80 -160 0 -160 0 0 80 0 80
-80 0 -80 0 0 -160 0 -160 -80 0 -80 0 0 -240 0 -240 -80 0 -80 0 0 -80 0 -80
-240 0 -240 0 0 80 0 80 -80 0 -80 0 0 80 0 80 80 0 80 0 0 160 0 160 80 0 80
0 0 80 0 80 160 0 160 0 0 80 0 80 -80 0 -80 0 0 80 0 80 -240 0 -240 0 0 80
0 80 -80 0 -80 0 0 240 0 240 80 0 80 0 0 80 0 80 80 0 80 0 0 -80z"/>
<path d="M480 4480 l0 -160 80 0 80 0 0 -80 0 -80 80 0 80 0 0 80 0 80 80 0
80 0 0 80 0 80 -80 0 -80 0 0 -80 0 -80 -80 0 -80 0 0 160 0 160 -80 0 -80 0
0 -160z"/>
<path d="M960 4080 l0 -80 80 0 80 0 0 80 0 80 -80 0 -80 0 0 -80z"/>
<path d="M1760 4080 l0 -80 -80 0 -80 0 0 -80 0 -80 80 0 80 0 0 80 0 80 80 0
80 0 0 -160 0 -160 80 0 80 0 0 160 0 160 -80 0 -80 0 0 80 0 80 -80 0 -80 0
0 -80z"/>
<path d="M1120 3600 l0 -80 80 0 80 0 0 80 0 80 -80 0 -80 0 0 -80z"/>
<path d="M800 3440 l0 -80 80 0 80 0 0 -80 0 -80 -160 0 -160 0 0 -80 0 -80
160 0 160 0 0 80 0 80 80 0 80 0 0 80 0 80 -80 0 -80 0 0 80 0 80 -80 0 -80 0
0 -80z"/>
</g>
</svg>
